<svg xmlns="http://www.w3.org/2000/svg" viewBox="0 0 512 512">
  <defs>
    <radialGradient id="ocean" cx="32%" cy="28%" r="72%">
      <stop offset="0%" stop-color="#9fd8ff"/>
      <stop offset="32%" stop-color="#2f79d1"/>
      <stop offset="66%" stop-color="#154583"/>
      <stop offset="100%" stop-color="#071b38"/>
    </radialGradient>
    <filter id="noise" x="-20%" y="-20%" width="140%" height="140%">
      <feTurbulence type="fractalNoise" baseFrequency="0.95" numOctaves="4" seed="8" result="turb"/>
      <feColorMatrix in="turb" type="saturate" values="0.2" result="grain"/>
      <feBlend in="SourceGraphic" in2="grain" mode="soft-light"/>
    </filter>
    <radialGradient id="shine" cx="22%" cy="20%" r="45%">
      <stop offset="0%" stop-color="#ffffff" stop-opacity="0.72"/>
      <stop offset="100%" stop-color="#ffffff" stop-opacity="0"/>
    </radialGradient>
  </defs>
  <circle cx="256" cy="256" r="246" fill="url(#ocean)"/>
  <g opacity="0.82" filter="url(#noise)">
    <path d="M124 238c27-42 57-55 98-40 30 11 53 8 74-10 28-24 58-21 89 10 23 23 36 54 26 73-13 24-42 31-68 16-24-14-45-15-67-2-40 23-88 24-129-8-29-22-44-28-56-24-10 3-14-3-9-15 8-19 23-28 42-32z" fill="#2f8e56"/>
    <path d="M170 316c28 19 62 25 100 9 35-15 59-17 84-2 20 13 39 9 53-10 14 30 7 58-18 76-30 22-80 36-133 31-53-5-94-30-119-67 10-26 16-31 33-37z" fill="#3fa56a" opacity="0.9"/>
    <path d="M89 214c18-8 34-5 48 10 8 8 9 19 2 30-8 12-18 17-30 13-17-6-28-27-20-39z" fill="#4db97a"/>
    <path d="M302 149c31-14 61-9 85 15 13 13 14 30 3 43-10 12-26 15-43 6-22-11-46-13-68-3-14 6-23-2-26-16-5-22 13-37 49-45z" fill="#4fb87c"/>
  </g>
  <circle cx="256" cy="256" r="246" fill="url(#shine)"/>
  <circle cx="256" cy="256" r="246" fill="none" stroke="#b4d8ff" stroke-opacity="0.32" stroke-width="3"/>
</svg>
